# xmcd
#
# Track frame offsets:
#	150
#	37848
#	63122
#	96646
#	130283
#	167342
#	186852
#	213266
#	246091
#	267902
#	319509
#
# Disc length: 4520
#
# Revision: 2
# Processed by: cddbd v1.5.1PL0 Copyright (c) Steve Scherf et al.
# Submitted via: CDex 1.50
# Normalized: r1:TRMNUM
#
DISCID=9111a60b
DTITLE=George Duke - Face The Music
DYEAR=2003
DGENRE=Jazz
TTITLE0=The Black Messiah (PartTwo)
TTITLE1=Chillin'
TTITLE2=My Piano
TTITLE3=Guess You' re Not The One
TTITLE4=Let's Roll
TTITLE5=Ain't It Funky Now
TTITLE6=Close To You   featuring Kirk Whalum
TTITLE7=Another Way To Look At It
TTITLE8=Creepin'
TTITLE9=Ten Mile Jog
TTITLE10=Guess You're Not The One w/George Duke
EXTD=YEAR: 2003
EXTT0=
EXTT1=
EXTT2=
EXTT3=
EXTT4=
EXTT5=
EXTT6=
EXTT7=
EXTT8=
EXTT9=
EXTT10=
PLAYORDER=
